<svg id="Layer_1" data-name="Layer 1" xmlns="http://www.w3.org/2000/svg" viewBox="0 0 884.89 377.45">
  <defs>
    <style>
      .cls-1{fill:#29abe2;}
    </style>
  </defs>
  <title>
    log_web
  </title>
  <path class="cls-1" d="M281.14 152.41h-49.57v37.17h37.17l12.39-12.39v24.78h-37.16v12.39l-12.4 12.39h49.56l12.39-12.39v24.78h-74.34l12.39-12.39v-37.17l12.39-12.39V164.8h49.61v-24.78zM320 221.3a18.576 18.576 0 1 0 26.27-26.27l8.72-8.82a31 31 0 1 1-43.81 43.81l-8.72-8.72zm26.27-26.27q-3.47-3.47-13-5.35t-13.23-5.55l-8.82 8.72q3.67 3.67 13.23 5.55t13.13 5.35zm-8.72-28.45a5.93 5.93 0 0 0-4.36-1.78 6.1 6.1 0 0 0-4.41 1.78 5.85 5.85 0 0 0-1.83 4.36 6.27 6.27 0 0 0 1.78 4.46l-8.72 8.72a18.576 18.576 0 1 1 26.27-26.27h17.54l-17.54 17.54zm117.26-12.09l-17.54 17.54a24.78 24.78 0 1 0-35 35.09l-8.82 8.72a37.2 37.2 0 0 1 26.27-63.44 36.83 36.83 0 0 1 16 3.57zm0 70.18a49.78 49.78 0 0 1-70.18 0l8.82-8.82a35.91 35.91 0 0 0 26.37 10.9 36.84 36.84 0 0 0 16.16-3.67zm142.44-22.7a23.7 23.7 0 0 0 17.45-7.29 25 25 0 0 0 .1-35l8.82-8.62a37.2 37.2 0 0 1-26.37 63.34h-12.39v24.78h-24.79l12.39-12.39v-24.78zm-.2-37.17a11.94 11.94 0 0 1 8.92 3.67l8.82-8.82a24.13 24.13 0 0 0-17.74-7.24h-24.58v49.56l12.39-12.39V164.8zm105.47-12.39h-49.56v37.17h37.17l12.39-12.39v24.78h-37.17v12.39l-12.39 12.39h49.56l12.39-12.39v24.78h-74.34l12.39-12.39v-37.17l12.39-12.39V164.8h49.56v-24.78zM532.67 164.47a35.69 35.69 0 0 1 6 11.7 50 50 0 0 1 2 14.67 52.9 52.9 0 0 1-.55 7.93 29.53 29.53 0 0 1-1.64 6.34q-2 5.25-5.65 7.24-4.66 2.48-9.52-.59a14.23 14.23 0 0 1-5.06-6l-.69 1.49a18.35 18.35 0 0 1-7.13 7.24.29.29 0 0 1-.2.1l-.1.1a12.33 12.33 0 0 1-6 1.59 10.24 10.24 0 0 1-5.65-1.59 13.52 13.52 0 0 1-5.45-7.24 28.19 28.19 0 0 1-1.29-5.8 39.88 39.88 0 0 1-.2-7 31.85 31.85 0 0 1 1.09-7.48 24.07 24.07 0 0 1 2-5 10.7 10.7 0 0 1 2.33-3 11.84 11.84 0 0 1 2.23-1.54 8.11 8.11 0 0 1 8.72.79q4 2.68 6 8.62a32.67 32.67 0 0 1 1.49 14.37 2 2 0 0 1-.74 1.34 1.8 1.8 0 0 1-1.44.45 2 2 0 0 1-1.34-.74 1.79 1.79 0 0 1-.45-1.44 32.83 32.83 0 0 0 0-6.24 31.86 31.86 0 0 0-.89-5.16 11 11 0 0 0-1.39-3.32q-.79-1.14-1.59-.74t-1.39 2.58a32.82 32.82 0 0 0-.79 6.64 30.71 30.71 0 0 0 1.19 11.1q1.29 3.67 2.83 3.77a3.61 3.61 0 0 0 3-1.74 18.43 18.43 0 0 0 2.58-4.86 23.68 23.68 0 0 0 1.44-5.7 3.18 3.18 0 0 1 .93-2.43 8.37 8.37 0 0 1 2.56-1.88 12 12 0 0 1 3.3-1 10.41 10.41 0 0 1 3.35 0 4.9 4.9 0 0 1 2.61 1.19 3.69 3.69 0 0 1 1.13 2.63q.1 5.15 1.16 7.19t2.27 1.29q1.21-.74 2.11-4.16a37.67 37.67 0 0 0 .91-9.27q-.1-10.7-3.72-17.84a25.58 25.58 0 0 0-9-10.51 19.59 19.59 0 0 0-11.7-3 20 20 0 0 0-11.65 4.66q-5.35 4.31-8.92 12.54t-3.57 20.42a54.78 54.78 0 0 0 2.87 18.09 35.21 35.21 0 0 0 8 13.48 24.06 24.06 0 0 0 12.19 6.74q7 1.54 15.36-2a2 2 0 0 1 2.68 2.53 2.16 2.16 0 0 1-1.09 1.14 82.12 82.12 0 0 1-8.87 2.92 37.47 37.47 0 0 1-9.76 1.24h-1.39a31.84 31.84 0 0 1-16.16-5.15 34.57 34.57 0 0 1-7.48-6.79 40.16 40.16 0 0 1-5.6-9 50.21 50.21 0 0 1-3.47-10.85 61.55 61.55 0 0 1-1.19-12.29 73.38 73.38 0 0 1 2-16.5 50.74 50.74 0 0 1 5.35-13.73 27.59 27.59 0 0 1 10.85-10.61 30.14 30.14 0 0 1 13.78-3.57 33.79 33.79 0 0 1 14.17 3 36.17 36.17 0 0 1 12.24 8.64z"/>
  <rect class="cls-1" x="7179.46" y="7331.45" width="42.8" height="42.8" rx="3" ry="3" transform="rotate(-180 3835.145 3846.67)"/>
  <rect class="cls-1" x="6732.89" y="7142.82" width="42.8" height="42.8" rx="3" ry="3" transform="rotate(-180 3388.57 3658.045)"/>
  <rect class="cls-1" x="6867.87" y="7058.07" width="42.8" height="42.8" rx="3" ry="3" transform="rotate(-180 3523.555 3573.29)"/>
  <path class="cls-1" d="M469.43 39.47l13.61 23.58 13.62 23.58H442.2l13.61-23.58 13.62-23.58zM857.66 319.09l-13.61-23.58-13.62-23.58h54.46l-13.62 23.58-13.61 23.58zM881.24 194.32l-23.58 13.62-23.58 13.61v-54.46l23.58 13.62 23.58 13.61z"/>
  <circle class="cls-1" cx="113.52" cy="354.6" r="22.85"/>
  <circle class="cls-1" cx="857.66" cy="93.13" r="22.85"/>
  <circle class="cls-1" cx="22.85" cy="22.85" r="22.85"/>
</svg>
